Coordinates
version=1
nRows=14
nColumns=36
inDegrees=yes

Units are S.I. units (second, meters, Newtons, ...)
If the header above contains a line with 'inDegrees', this indicates whether rotational values are in degrees (yes) or radians (no).

endheader
time	pelvis_tilt	pelvis_list	pelvis_rotation	pelvis_tx	pelvis_ty	pelvis_tz	hip_flexion_r	hip_adduction_r	hip_rotation_r	knee_angle_r	knee_angle_r_beta	ankle_angle_r	subtalar_angle_r	mtp_angle_r	hip_flexion_l	hip_adduction_l	hip_rotation_l	knee_angle_l	knee_angle_l_beta	ankle_angle_l	subtalar_angle_l	mtp_angle_l	lumbar_extension	lumbar_bending	lumbar_rotation	arm_flex_r	arm_add_r	arm_rot_r	elbow_flex_r	pro_sup_r	arm_flex_l	arm_add_l	arm_rot_l	elbow_flex_l	pro_sup_l
      1.66666670	      0.66816060	     -1.88349253	     -2.50185514	     -0.86577739	      1.28164000	     -0.09590802	     -0.73109896	      2.78626475	     -2.03480066	      6.83786690	      0.11934329	      2.06645327	    -25.38319187	     -7.49999987	     -5.94594979	     -1.33730758	      8.97382708	      1.48171792	      0.02586086	      7.82931372	    -11.42473511	     -7.49999987	     -5.61162749	     -1.20243398	     -4.52374956	     -6.25917926	     -9.61995720	     -5.52370252	     82.13358757	     69.02469588	      5.80220664	    -15.38848636	     60.38873639	     18.03435167	     43.66619903
      1.67083330	      0.59879993	     -1.85305039	     -2.52928679	     -0.86879861	      1.28549618	     -0.09797906	     -0.83117135	      2.76630749	     -1.99341693	      6.45900796	      0.11273096	      1.70782664	    -25.00985089	     -7.49999987	     -5.96831867	     -1.28404515	      8.87041248	      1.31807364	      0.02300472	      7.37323603	    -11.24948122	     -7.49999987	     -5.69518383	     -1.22092621	     -4.37349409	     -6.67479118	     -9.45316991	     -5.66366842	     79.86643358	     69.07575750	      5.94109270	    -15.22095851	     60.09764253	     17.95041114	     43.46327029
      1.67500000	      0.57589343	     -1.81373399	     -2.54803875	     -0.86780000	      1.27906711	     -0.09687631	     -0.95547730	      2.74094058	     -1.98691616	      6.18272530	      0.10790891	      1.67152145	    -24.66749873	     -7.49999987	     -6.01872321	     -1.23486153	      8.76730218	      1.24290650	      0.02169281	      7.33079499	    -11.05165354	     -7.49999987	     -5.60709973	     -1.31194970	     -5.19824732	     -5.91911306	     -9.23884071	     -4.96002994	     76.46301678	     69.50961487	      5.15222806	    -15.25504378	     57.49795295	     18.05462215	     43.04866317
      1.67916670	      0.44719034	     -1.80090373	     -2.60029958	     -0.86796562	      1.28294982	     -0.09723859	     -0.94643513	      2.73606275	     -2.11205975	      5.91079562	      0.10316284	      1.31620106	    -24.54571342	     -7.49999987	     -5.96785114	     -1.21277164	      8.77308155	      1.14979401	      0.02006769	      7.16756164	    -10.98016374	     -7.49999987	     -5.57630445	     -1.34037253	     -5.43129341	     -5.72197402	     -9.08996524	     -4.86568124	     73.90335059	     71.61809292	      4.68471371	    -15.02200532	     54.13332715	     18.04962145	     44.15233285
      1.68333330	      0.51398748	     -1.80582887	     -2.61034389	     -0.86709216	      1.28391049	     -0.09780573	     -1.19392234	      2.74946368	     -2.15472028	      5.52603077	      0.09644743	      1.19960368	    -24.13754052	     -7.49999987	     -6.13462036	     -1.19174203	      8.58212579	      1.06711444	      0.01862466	      7.23425523	    -10.49027276	     -7.49999987	     -5.80571150	     -1.33075616	     -5.42495393	     -5.71043069	     -9.05877308	     -4.69187063	     71.90319057	     69.58902613	      4.61416385	    -14.86536872	     52.19683113	     18.03771827	     46.49553200
      1.68750000	      0.41360353	     -1.77894530	     -2.59542714	     -0.86911922	      1.27819871	     -0.09961582	     -1.11401722	      2.71952057	     -2.09597679	      5.41753794	      0.09455387	      0.97193817	    -24.15995264	     -7.49999987	     -6.02011349	     -1.11487655	      8.70665654	      1.05795185	      0.01846474	      7.20840769	    -10.51564194	     -7.49999987	     -5.87860206	     -1.31613054	     -5.50764467	     -5.64493736	     -9.01438923	     -4.68160465	     69.97770805	     70.19915221	      4.55394983	    -14.82680499	     51.05154343	     18.47109968	     46.08310377
      1.69166670	      0.43669362	     -1.77983431	     -2.59541218	     -0.86522111	      1.27482941	     -0.09888525	     -1.21168951	      2.68340486	     -2.17081748	      5.33955212	      0.09319277	      1.06904101	    -23.87723022	     -7.49999987	     -6.09255437	     -1.08743036	      8.69888273	      1.05629298	      0.01843579	      7.17752672	    -10.49700253	     -7.49999987	     -5.91646223	     -1.28276782	     -5.49824294	     -5.75414858	     -9.00468516	     -4.60486380	     68.24394670	     70.71553689	      4.42490734	    -14.66388071	     49.60381169	     18.55781412	     46.17233946
      1.69583330	      0.57797029	     -1.82177595	     -2.64616244	     -0.86604469	      1.27747217	     -0.10085228	     -1.40880905	      2.63023049	     -2.62855197	      5.33708463	      0.09314970	      1.31371596	    -23.22681103	     -7.49999987	     -6.30476373	     -1.09483724	      8.33458968	      1.02176631	      0.01783319	      7.66073820	     -9.62218505	     -7.49999987	     -6.20407398	     -1.19309213	     -5.45165469	     -5.74307766	     -9.10064560	     -4.19369680	     66.63453590	     69.66259154	      4.39100151	    -14.51794514	     48.15259568	     18.72747152	     47.65572852
      1.70000000	      0.59468308	     -1.82618083	     -2.72932389	     -0.86720976	      1.27798084	     -0.10195102	     -1.39942726	      2.55968875	     -2.66157252	      5.43534735	      0.09486471	      1.44167418	    -23.25138383	     -7.49999987	     -6.34258499	     -1.04049131	      8.20159034	      1.01883946	      0.01778210	      7.97279131	     -9.36789752	     -7.49999987	     -6.37311682	     -1.12555296	     -5.46110748	     -5.59452737	     -9.35002646	     -3.42808991	     64.85753643	     68.92512786	      4.28316878	    -14.23490207	     45.95847645	     18.74712868	     49.15421542
      1.70416670	      0.31987090	     -1.81452767	     -2.62769987	     -0.86705776	      1.27086042	     -0.10017634	     -1.11205744	      2.58900892	     -2.35619282	      5.35605045	      0.09348072	      1.04779073	    -23.98210648	     -7.49999987	     -6.01702236	     -1.02349358	      8.87355366	      1.05640134	      0.01843768	      7.77308005	    -10.22644052	     -7.49999987	     -6.11139016	     -1.03259730	     -5.42459691	     -5.76138565	     -9.42294506	     -3.52177619	     63.62807482	     73.72536199	      4.01917431	    -14.26024310	     44.01745702	     19.66074784	     48.03399575
      1.70833330	      0.27785029	     -1.85048007	     -2.69518840	     -0.86707596	      1.27940965	     -0.10284219	     -1.03755139	      2.54884298	     -2.39399766	      5.41379677	      0.09448858	      1.01225743	    -23.80036022	     -7.49999987	     -5.98580578	     -1.02518964	      8.92912959	      1.01719133	      0.01775334	      7.81880730	    -10.07723180	     -7.49999987	     -6.32332344	     -0.82201963	     -5.17547223	     -5.69820514	     -9.48697036	     -3.61121706	     62.22134192	     73.80695202	      4.19737285	    -14.02295786	     43.85414294	     19.64232436	     48.01326866
      1.71250000	      0.08085067	     -1.85657815	     -2.67422384	     -0.86868696	      1.26791940	     -0.10165145	     -0.71768597	      2.55784078	     -2.14606024	      5.53975034	      0.09668688	      1.30444142	    -23.83033832	     -7.49999987	     -5.72401107	     -1.00201315	      9.08688559	      1.08609981	      0.01895602	      8.20943444	    -10.29883300	     -7.49999987	     -6.12185048	     -0.69380774	     -5.38284824	     -5.22748624	     -9.66608048	     -2.88639700	     60.54498302	     75.09659158	      3.85123097	    -13.94117482	     40.89395568	     20.26674965	     48.70786477
      1.71666670	     -0.09692944	     -1.81661744	     -2.64218812	     -0.87021464	      1.26730926	     -0.10156633	     -0.36055510	      2.51340953	     -2.07554973	      5.74714665	      0.10030663	      1.64407842	    -23.62262631	     -7.49999987	     -5.46316830	     -0.95080160	      9.32021311	      1.10822390	      0.01934216	      8.28598786	    -10.45936026	     -7.49999987	     -6.09963269	     -0.60131697	     -5.16915865	     -4.98393197	     -9.78487605	     -2.52477364	     59.30350042	     74.06703115	      3.99338404	    -13.74367869	     39.31706656	     20.38251263	     50.20529075
      1.72083330	     -0.15817237	     -1.77936116	     -2.68885142	     -0.86925676	      1.26648566	     -0.10069631	     -0.13507829	      2.47103275	     -1.95384213	      5.98145936	      0.10439616	      2.13324635	    -23.26214784	     -7.49999987	     -5.35035717	     -0.91639112	      8.97110838	      1.15559412	      0.02016892	      8.90781589	     -9.60545276	     -7.49999987	     -6.15261373	     -0.57422581	     -4.84096787	     -4.69447532	     -9.66923572	     -2.58775773	     57.71566175	     72.71454061	      4.07199028	    -13.69237085	     37.92070737	     20.71550382	     51.38494673
